REM DIRINDEX 1\2,1\3,1\4,1\5,1\6
REM DIRNAME folder01,folder02,folder03,folder04,folder05,folder06
TITLE ""
FILE "Disc6Track21.mp3" MP3
  TRACK 01 AUDIO
    TITLE "2:cjc030_11061"
    INDEX 01 00:00:00
  TRACK 02 AUDIO
    TITLE "0:"
    INDEX 01 00:03:47
  TRACK 03 AUDIO
    TITLE "3:cjc030_11062"
    INDEX 01 00:04:19
  TRACK 04 AUDIO
    TITLE "0:"
    INDEX 01 00:05:10
  TRACK 05 AUDIO
    TITLE "4:cjc030_11063"
    INDEX 01 00:05:22
  TRACK 06 AUDIO
    TITLE "0:"
    INDEX 01 00:09:12
  TRACK 07 AUDIO
    TITLE "5:cjc030_11064"
    INDEX 01 00:09:22
  TRACK 08 AUDIO
    TITLE "0:"
    INDEX 01 00:10:12
  TRACK 09 AUDIO
    TITLE "6:cjc030_11065"
    INDEX 01 00:10:23
  TRACK 10 AUDIO
    TITLE "0:"
    INDEX 01 00:13:61
  TRACK 11 AUDIO
    TITLE "3:cjc030_11066"
    INDEX 01 00:14:35
  TRACK 12 AUDIO
    TITLE "0:"
    INDEX 01 00:15:42
  TRACK 13 AUDIO
    TITLE "4:cjc030_11067"
    INDEX 01 00:15:52
  TRACK 14 AUDIO
    TITLE "0:"
    INDEX 01 00:16:49
  TRACK 15 AUDIO
    TITLE "5:cjc030_11068"
    INDEX 01 00:16:57
  TRACK 16 AUDIO
    TITLE "0:"
    INDEX 01 00:17:69
  TRACK 17 AUDIO
    TITLE "6:cjc030_11069"
    INDEX 01 00:18:03
  TRACK 18 AUDIO
    TITLE "0:"
    INDEX 01 00:20:06
  TRACK 19 AUDIO
    TITLE "3:cjc030_11070"
    INDEX 01 00:20:53
  TRACK 20 AUDIO
    TITLE "0:"
    INDEX 01 00:21:51
  TRACK 21 AUDIO
    TITLE "4:cjc030_11071"
    INDEX 01 00:21:60
  TRACK 22 AUDIO
    TITLE "0:"
    INDEX 01 00:26:15
  TRACK 23 AUDIO
    TITLE "5:cjc030_11072"
    INDEX 01 00:26:24
  TRACK 24 AUDIO
    TITLE "0:"
    INDEX 01 00:27:22
  TRACK 25 AUDIO
    TITLE "6:cjc030_11073"
    INDEX 01 00:27:34
  TRACK 26 AUDIO
    TITLE "0:"
    INDEX 01 00:32:03
  TRACK 27 AUDIO
    TITLE "6:cjc030_11074"
    INDEX 01 00:32:37
  TRACK 28 AUDIO
    TITLE "0:"
    INDEX 01 00:35:31
  TRACK 29 AUDIO
    TITLE "3:cjc030_11075"
    INDEX 01 00:36:01
  TRACK 30 AUDIO
    TITLE "0:"
    INDEX 01 00:37:10
  TRACK 31 AUDIO
    TITLE "4:cjc030_11076"
    INDEX 01 00:37:22
  TRACK 32 AUDIO
    TITLE "0:"
    INDEX 01 00:39:72
  TRACK 33 AUDIO
    TITLE "5:cjc030_11077"
    INDEX 01 00:40:05
  TRACK 34 AUDIO
    TITLE "0:"
    INDEX 01 00:41:18
  TRACK 35 AUDIO
    TITLE "6:cjc030_11078"
    INDEX 01 00:41:28
  TRACK 36 AUDIO
    TITLE "0:"
    INDEX 01 00:46:09
  TRACK 37 AUDIO
    TITLE "3:cjc030_11079"
    INDEX 01 00:46:56
  TRACK 38 AUDIO
    TITLE "0:"
    INDEX 01 00:47:66
  TRACK 39 AUDIO
    TITLE "4:cjc030_11080"
    INDEX 01 00:48:02
  TRACK 40 AUDIO
    TITLE "0:"
    INDEX 01 00:50:31
  TRACK 41 AUDIO
    TITLE "5:cjc030_11081"
    INDEX 01 00:50:37
  TRACK 42 AUDIO
    TITLE "0:"
    INDEX 01 00:51:48
  TRACK 43 AUDIO
    TITLE "6:cjc030_11082"
    INDEX 01 00:51:62
  TRACK 44 AUDIO
    TITLE "0:"
    INDEX 01 00:55:44
  TRACK 45 AUDIO
    TITLE "3:cjc030_11083"
    INDEX 01 00:56:18
  TRACK 46 AUDIO
    TITLE "0:"
    INDEX 01 00:57:19
  TRACK 47 AUDIO
    TITLE "4:cjc030_11084"
    INDEX 01 00:57:29
  TRACK 48 AUDIO
    TITLE "0:"
    INDEX 01 01:01:11
  TRACK 49 AUDIO
    TITLE "5:cjc030_11085"
    INDEX 01 01:01:19
  TRACK 50 AUDIO
    TITLE "0:"
    INDEX 01 01:02:24
  TRACK 51 AUDIO
    TITLE "6:cjc030_11086"
    INDEX 01 01:02:34
  TRACK 52 AUDIO
    TITLE "0:"
    INDEX 01 01:08:01
  TRACK 53 AUDIO
    TITLE "3:cjc030_11087"
    INDEX 01 01:08:48
  TRACK 54 AUDIO
    TITLE "0:"
    INDEX 01 01:09:40
  TRACK 55 AUDIO
    TITLE "4:cjc030_11088"
    INDEX 01 01:09:50
  TRACK 56 AUDIO
    TITLE "0:"
    INDEX 01 01:11:45
  TRACK 57 AUDIO
    TITLE "5:cjc030_11089"
    INDEX 01 01:11:54
  TRACK 58 AUDIO
    TITLE "0:"
    INDEX 01 01:12:46
  TRACK 59 AUDIO
    TITLE "6:cjc030_11090"
    INDEX 01 01:12:60
  TRACK 60 AUDIO
    TITLE "0:"
    INDEX 01 01:18:58
  TRACK 61 AUDIO
    TITLE "3:cjc030_11091"
    INDEX 01 01:19:32
  TRACK 62 AUDIO
    TITLE "0:"
    INDEX 01 01:20:38
  TRACK 63 AUDIO
    TITLE "4:cjc030_11092"
    INDEX 01 01:20:48
  TRACK 64 AUDIO
    TITLE "0:"
    INDEX 01 01:24:18
  TRACK 65 AUDIO
    TITLE "5:cjc030_11093"
    INDEX 01 01:24:24
  TRACK 66 AUDIO
    TITLE "0:"
    INDEX 01 01:25:31
  TRACK 67 AUDIO
    TITLE "6:cjc030_11094"
    INDEX 01 01:25:45
  TRACK 68 AUDIO
    TITLE "0:"
    INDEX 01 01:31:63
  TRACK 69 AUDIO
    TITLE "3:cjc030_11095"
    INDEX 01 01:32:37
  TRACK 70 AUDIO
    TITLE "0:"
    INDEX 01 01:33:33
  TRACK 71 AUDIO
    TITLE "4:cjc030_11096"
    INDEX 01 01:33:42
  TRACK 72 AUDIO
    TITLE "0:"
    INDEX 01 01:35:47
  TRACK 73 AUDIO
    TITLE "5:cjc030_11097"
    INDEX 01 01:35:55
  TRACK 74 AUDIO
    TITLE "0:"
    INDEX 01 01:36:54
  TRACK 75 AUDIO
    TITLE "6:cjc030_11098"
    INDEX 01 01:36:72
  TRACK 76 AUDIO
    TITLE "0:"
    INDEX 01 01:39:55
  TRACK 77 AUDIO
    TITLE "3:cjc030_11099"
    INDEX 01 01:40:29
  TRACK 78 AUDIO
    TITLE "0:"
    INDEX 01 01:41:26
  TRACK 79 AUDIO
    TITLE "4:cjc030_11100"
    INDEX 01 01:41:36
  TRACK 80 AUDIO
    TITLE "0:"
    INDEX 01 01:43:35
  TRACK 81 AUDIO
    TITLE "5:cjc030_11101"
    INDEX 01 01:43:43
  TRACK 82 AUDIO
    TITLE "0:"
    INDEX 01 01:44:42
  TRACK 83 AUDIO
    TITLE "6:cjc030_11102"
    INDEX 01 01:44:54
  TRACK 84 AUDIO
    TITLE "0:"
    INDEX 01 01:49:59
  TRACK 85 AUDIO
    TITLE "3:cjc030_11103"
    INDEX 01 01:50:33
  TRACK 86 AUDIO
    TITLE "0:"
    INDEX 01 01:51:34
  TRACK 87 AUDIO
    TITLE "4:cjc030_11104"
    INDEX 01 01:51:44
  TRACK 88 AUDIO
    TITLE "0:"
    INDEX 01 01:54:64
  TRACK 89 AUDIO
    TITLE "5:cjc030_11105"
    INDEX 01 01:54:72
  TRACK 90 AUDIO
    TITLE "0:"
    INDEX 01 01:56:00
  TRACK 91 AUDIO
    TITLE "6:cjc030_11106"
    INDEX 01 01:56:12
  TRACK 92 AUDIO
    TITLE "0:"
    INDEX 01 02:00:41
  TRACK 93 AUDIO
    TITLE "3:cjc030_11107"
    INDEX 01 02:01:15
  TRACK 94 AUDIO
    TITLE "0:"
    INDEX 01 02:02:18
  TRACK 95 AUDIO
    TITLE "4:cjc030_11108"
    INDEX 01 02:02:32
  TRACK 96 AUDIO
    TITLE "0:"
    INDEX 01 02:04:17
  TRACK 97 AUDIO
    TITLE "5:cjc030_11109"
    INDEX 01 02:04:27
  TRACK 98 AUDIO
    TITLE "0:"
    INDEX 01 02:05:34
  TRACK 99 AUDIO
    TITLE "6:cjc030_11110"
    INDEX 01 02:05:46
  TRACK 100 AUDIO
    TITLE "0:"
    INDEX 01 02:07:33
  TRACK 101 AUDIO
    TITLE "3:cjc030_11111"
    INDEX 01 02:08:05
  TRACK 102 AUDIO
    TITLE "0:"
    INDEX 01 02:09:07
  TRACK 103 AUDIO
    TITLE "4:cjc030_11112"
    INDEX 01 02:09:15
  TRACK 104 AUDIO
    TITLE "0:"
    INDEX 01 02:13:09
  TRACK 105 AUDIO
    TITLE "5:cjc030_11113"
    INDEX 01 02:13:16
  TRACK 106 AUDIO
    TITLE "0:"
    INDEX 01 02:14:18
  TRACK 107 AUDIO
    TITLE "6:cjc030_11114"
    INDEX 01 02:14:31
  TRACK 108 AUDIO
    TITLE "0:"
    INDEX 01 02:17:10
